<svg xmlns="http://www.w3.org/2000/svg" version="1.1" xmlns:xlink="http://www.w3.org/1999/xlink" xmlns:svgjs="http://svgjs.dev/svgjs" width="1500" height="939" viewBox="0 0 1500 939"><g transform="matrix(1,0,0,1,-0.9090909090909918,-1.5145161290323017)"><svg viewBox="0 0 396 248" data-background-color="#ffffff" preserveAspectRatio="xMidYMid meet" height="939" width="1500" xmlns="http://www.w3.org/2000/svg" xmlns:xlink="http://www.w3.org/1999/xlink"><g id="tight-bounds" transform="matrix(1,0,0,1,0.2400000000000091,0.4000000000000057)"><svg viewBox="0 0 395.52 247.2" height="247.2" width="395.52"><g><svg></svg></g><g><svg viewBox="0 0 395.52 247.2" height="247.2" width="395.52"><g transform="matrix(1,0,0,1,158.33852395709175,47.215199999999996)"><svg viewBox="0 0 78.84295208581645 152.7696" height="152.7696" width="78.84295208581645"><g><svg viewBox="0 0 78.84295208581645 152.7696" height="152.7696" width="78.84295208581645"><g><svg viewBox="0 0 78.84295208581645 152.7696" height="152.7696" width="78.84295208581645"><g><svg viewBox="0 0 78.84295208581645 152.7696" height="152.7696" width="78.84295208581645"><g id="textblocktransform"><svg viewBox="0 0 78.84295208581645 152.7696" height="152.7696" width="78.84295208581645" id="textblock"><g><svg viewBox="0 0 78.84295208581645 152.7696" height="152.7696" width="78.84295208581645"><g transform="matrix(1,0,0,1,0,0)"><svg width="78.84295208581645" viewBox="2.8 -38 21.65 41.95" height="152.7696" data-palette-color="#ffffff"><path d="M12.65 3.95L12.65-2Q7.95-2 5.38-3.83 2.8-5.65 2.8-8.8L2.8-8.8Q2.8-10.3 3.75-11.23 4.7-12.15 6.4-12.15L6.4-12.15Q6.75-10.1 7.38-8.28 8-6.45 9.25-5.33 10.5-4.2 12.65-4.2L12.65-4.2 12.65-16.55Q9.55-17.95 7.68-19.33 5.8-20.7 4.98-22.35 4.15-24 4.15-26.2L4.15-26.2Q4.15-29.6 6.45-31.65 8.75-33.7 12.65-34.1L12.65-34.1 12.65-38 15.15-38 15.15-34.2Q19.65-34.1 21.55-32.52 23.45-30.95 23.45-28.6L23.45-28.6Q23.45-27 22.38-26.18 21.3-25.35 19.5-25.35L19.5-25.35Q19.5-26.8 19.15-28.25 18.8-29.7 17.88-30.73 16.95-31.75 15.15-31.9L15.15-31.9 15.15-20.25Q18.15-18.95 20.23-17.6 22.3-16.25 23.38-14.58 24.45-12.9 24.45-10.5L24.45-10.5Q24.45-6.75 22.03-4.65 19.6-2.55 15.15-2.1L15.15-2.1 15.15 3.95 12.65 3.95ZM12.65-21.35L12.65-31.8Q10.65-31.4 9.65-29.98 8.65-28.55 8.65-26.6L8.65-26.6Q8.65-24.5 9.68-23.35 10.7-22.2 12.65-21.35L12.65-21.35ZM15.15-15.45L15.15-4.35Q17.4-4.75 18.63-6.18 19.85-7.6 19.85-9.75L19.85-9.75Q19.85-11.75 18.8-13.03 17.75-14.3 15.15-15.45L15.15-15.45Z" opacity="1" transform="matrix(1,0,0,1,0,0)" fill="#ffffff" class="wordmark-text-0" data-fill-palette-color="primary" id="text-0"></path></svg></g></svg></g></svg></g></svg></g></svg></g></svg></g></svg></g><g><path d="M0 123.6c0-35.74 15.17-67.938 39.421-90.504l0 9.661c-20.148 20.974-32.533 49.462-32.533 80.843 0 31.381 12.385 59.869 32.533 80.843l0 9.661c-24.252-22.567-39.421-54.764-39.421-90.504zM123.6 0c30.402 0 58.24 10.976 79.768 29.183l-11.147 0c-19.26-14.022-42.974-22.294-68.621-22.295-25.647 0-49.361 8.272-68.621 22.295l-11.147 0c21.528-18.206 49.366-29.183 79.768-29.183zM123.6 247.2c-30.402 0-58.24-10.976-79.768-29.183l11.147 0c19.26 14.022 42.974 22.294 68.621 22.295 25.647 0 49.361-8.272 68.621-22.295l11.147 0c-21.528 18.206-49.366 29.183-79.768 29.183z" fill="#ffffff" stroke="transparent" data-fill-palette-color="tertiary"></path></g></svg></g><defs></defs></svg><rect width="395.52" height="247.2" fill="none" stroke="none" visibility="hidden"></rect></g></svg></g></svg>